<svg width="24" height="24" viewBox="0 0 24 24" fill="none" xmlns="http://www.w3.org/2000/svg">
<path d="M20 7V17H22V7H20ZM19 18H5V20H19V18ZM4 17V7H2V17H4ZM5 6H19V4H5V6ZM20.5528 7.60557L12.4472 11.6584L13.3416 13.4472L21.4472 9.39443L20.5528 7.60557ZM11.5528 11.6584L3.44721 7.60557L2.55278 9.39443L10.6584 13.4472L11.5528 11.6584ZM4 7C4 6.44772 4.44771 6 5 6V4C3.34314 4 2 5.34314 2 7H4ZM5 18C4.44771 18 4 17.5523 4 17H2C2 18.6569 3.34314 20 5 20V18ZM20 17C20 17.5523 19.5523 18 19 18V20C20.6569 20 22 18.6569 22 17H20ZM12.4472 11.6584C12.1657 11.7991 11.8343 11.7991 11.5528 11.6584L10.6584 13.4472C11.5029 13.8695 12.4971 13.8695 13.3416 13.4472L12.4472 11.6584ZM22 7C22 5.34315 20.6569 4 19 4V6C19.5523 6 20 6.44772 20 7H22Z" fill="black"/>
</svg>
