<svg width="24" height="24" viewBox="0 0 24 24" fill="none" xmlns="http://www.w3.org/2000/svg">
<path d="M12 2C17.5228 2 22 6.47715 22 12C22 17.5228 17.5228 22 12 22C6.47715 22 2 17.5228 2 12C2 6.47715 6.47715 2 12 2ZM12 4C7.58172 4 4 7.58172 4 12C4 15.8611 6.73545 19.0827 10.374 19.834V14.708H8V11.9062H10.374V9.77148C10.374 7.34237 11.7704 6.00017 13.9062 6C14.9294 6 16 6.18945 16 6.18945V8.57422H14.8203C13.6592 8.57442 13.297 9.32163 13.2969 10.0879V11.9062H15.8906L15.4756 14.708H13.2969V19.8936C17.0983 19.2737 20 15.9766 20 12C20 7.58172 16.4183 4 12 4Z" fill="black"/>
</svg>
