<svg width="24" height="24" viewBox="0 0 24 24" fill="none" xmlns="http://www.w3.org/2000/svg">
<path d="M12 3.80182C14.67 3.80182 14.9863 3.81182 16.0409 3.86C16.6748 3.86765 17.3028 3.9842 17.8973 4.20455C18.3317 4.36486 18.7246 4.62053 19.0473 4.95273C19.3795 5.27533 19.6352 5.66829 19.7955 6.10273C20.0158 6.69721 20.1323 7.32514 20.14 7.9591C20.1882 9.01363 20.1982 9.33 20.1982 12C20.1982 14.67 20.1882 14.9863 20.14 16.0409C20.1323 16.6748 20.0158 17.3028 19.7955 17.8973C19.6291 18.3286 19.3742 18.7204 19.0473 19.0473C18.7204 19.3742 18.3286 19.6291 17.8973 19.7955C17.3028 20.0158 16.6748 20.1323 16.0409 20.14C14.9863 20.1882 14.67 20.1982 12 20.1982C9.33 20.1982 9.01363 20.1882 7.9591 20.14C7.32483 20.1324 6.69659 20.0159 6.10182 19.7955C5.66772 19.6351 5.27507 19.3794 4.95273 19.0473C4.62053 18.7246 4.36486 18.3317 4.20455 17.8973C3.9842 17.3028 3.86765 16.6748 3.86 16.0409C3.81182 14.9863 3.80182 14.67 3.80182 12C3.80182 9.33 3.81182 9.01363 3.86 7.9591C3.86765 7.32514 3.9842 6.69721 4.20455 6.10273C4.36486 5.66829 4.62053 5.27533 4.95273 4.95273C5.27533 4.62053 5.66829 4.36486 6.10273 4.20455C6.69721 3.9842 7.32514 3.86765 7.9591 3.86C9.01363 3.81182 9.33 3.80182 12 3.80182ZM12 2C9.28455 2 8.94363 2.01182 7.87727 2.06C7.04774 2.07655 6.22702 2.23362 5.45 2.52455C4.78242 2.77589 4.17775 3.16991 3.67818 3.67909C3.16943 4.17848 2.77574 4.78283 2.52455 5.45C2.23394 6.22707 2.07717 7.04779 2.06091 7.87727C2.01091 8.94363 2 9.28455 2 12C2 14.7155 2.01182 15.0563 2.06 16.1227C2.07655 16.9522 2.23362 17.7729 2.52455 18.55C2.77589 19.2176 3.16991 19.8222 3.67909 20.3218C4.17848 20.8305 4.78283 21.2242 5.45 21.4755C6.22707 21.7661 7.04779 21.9228 7.87727 21.9391C8.94363 21.9891 9.28455 22 12 22C14.7155 22 15.0563 21.9882 16.1227 21.94C16.9522 21.9235 17.7729 21.7664 18.55 21.4755C19.2145 21.2185 19.818 20.8256 20.3218 20.3218C20.8256 19.818 21.2185 19.2145 21.4755 18.55C21.7661 17.7729 21.9228 16.9522 21.9391 16.1227C21.9891 15.0563 22 14.7155 22 12C22 9.28455 21.9882 8.94363 21.94 7.87727C21.9235 7.04774 21.7664 6.22702 21.4755 5.45C21.2241 4.78242 20.8301 4.17775 20.3209 3.67818C19.8215 3.16943 19.2172 2.77574 18.55 2.52455C17.7729 2.23394 16.9522 2.07717 16.1227 2.06091C15.0563 2.01091 14.7155 2 12 2ZM12 6.86455C10.9843 6.86455 9.99137 7.16574 9.14689 7.73002C8.30237 8.29432 7.64415 9.09637 7.25546 10.0347C6.86677 10.9732 6.76507 12.0057 6.96322 13.0019C7.16138 13.9981 7.65048 14.9132 8.36868 15.6313C9.08689 16.3495 10.0019 16.8386 10.9981 17.0367C11.9943 17.2349 13.0268 17.1333 13.9653 16.7445C14.9037 16.3559 15.7057 15.6976 16.27 14.8532C16.8343 14.0086 17.1355 13.0157 17.1355 12C17.1355 10.638 16.5944 9.33177 15.6313 8.36868C14.6682 7.4056 13.362 6.86455 12 6.86455ZM12 15.3337C11.3406 15.3337 10.6961 15.1381 10.1479 14.7718C9.59972 14.4055 9.17244 13.8848 8.92013 13.2757C8.66781 12.6666 8.60179 11.9963 8.73042 11.3497C8.85905 10.7029 9.17655 10.1089 9.64277 9.64277C10.1089 9.17655 10.7029 8.85905 11.3497 8.73042C11.9963 8.60179 12.6666 8.66781 13.2757 8.92013C13.8848 9.17244 14.4055 9.59972 14.7718 10.1479C15.1381 10.6961 15.3337 11.3406 15.3337 12C15.3337 12.8841 14.9824 13.7321 14.3573 14.3573C13.7321 14.9824 12.8841 15.3337 12 15.3337ZM17.3382 5.46182C17.1008 5.46182 16.8688 5.5322 16.6715 5.66405C16.4742 5.79592 16.3203 5.98333 16.2296 6.2026C16.1387 6.42187 16.1149 6.66315 16.1613 6.89593C16.2076 7.12871 16.3218 7.34253 16.4897 7.51035C16.6575 7.67817 16.8713 7.79246 17.1041 7.83876C17.3368 7.88506 17.5781 7.86129 17.7974 7.77047C18.0166 7.67965 18.2041 7.52584 18.3359 7.32851C18.4678 7.13117 18.5382 6.89916 18.5382 6.66182C18.5382 6.34356 18.4118 6.03834 18.1867 5.81329C17.9617 5.58824 17.6564 5.46182 17.3382 5.46182Z" fill="black"/>
</svg>
